<svg width="34" height="34" viewBox="0 0 34 34" fill="none" xmlns="http://www.w3.org/2000/svg">
<g clip-path="url(#clip0_2126_342)">
<path d="M24.0413 24.0416C23.0632 25.0198 21.9583 25.7534 20.7268 26.2425C19.4952 26.7316 18.2431 26.9761 16.9703 26.9761C15.6975 26.9761 14.4453 26.7316 13.2138 26.2425C11.9822 25.7534 10.8774 25.0198 9.89919 24.0416C8.92103 23.0635 8.18741 21.9586 7.69832 20.7271C7.20924 19.4955 6.9647 18.2434 6.9647 16.9706C6.9647 15.6978 7.20924 14.4456 7.69832 13.2141C8.18741 11.9825 8.92103 10.8777 9.89919 9.89949C10.8774 8.92133 11.9822 8.18771 13.2138 7.69862C14.4453 7.20954 15.6975 6.965 16.9703 6.965C18.2431 6.965 19.4952 7.20954 20.7268 7.69863C21.9583 8.18771 23.0632 8.92133 24.0413 9.89949C25.0195 10.8777 25.7531 11.9825 26.2422 13.2141C26.7313 14.4456 26.9758 15.6978 26.9758 16.9706C26.9758 18.2434 26.7313 19.4955 26.2422 20.7271C25.7531 21.9586 25.0195 23.0635 24.0413 24.0416ZM23.2812 21.8673C24.5068 20.2881 25.0666 18.4967 24.9606 16.4933C24.8545 14.4898 24.0767 12.7633 22.6271 11.3137C21.1775 9.86414 19.451 9.08632 17.4476 8.98026C15.4441 8.87419 13.6528 9.43398 12.0735 10.6596L23.2812 21.8673Z" />
</g>
<defs>
<clipPath id="clip0_2126_342">
<rect width="24" height="24"  transform="translate(0 16.9706) rotate(-45)"/>
</clipPath>
</defs>
</svg>
